<svg width="773" height="641" viewBox="0 0 773 641" fill="none" xmlns="http://www.w3.org/2000/svg">
<path d="M63.5879 345.443C91.2304 372.951 145.154 379.306 192.859 366.43C152.53 387.947 86.582 389.634 63.5879 345.443Z" fill="url(#paint0_linear_7_70)"/>
<path d="M404.352 220.281L404.282 220.246C355.258 195.553 326.579 187.84 251.905 196.565C177.232 205.29 116.315 229.838 47.2706 274.502C111.419 215.25 193.453 172.984 243.128 166.489C320.15 149.403 386.269 156.273 441.012 166.489C543.719 188.862 555.712 274.172 492.284 366.299C459.406 414.052 411.619 449.763 359.262 473.229C495.178 502.579 566.259 539.948 684.697 640.658C517.077 531.332 417.421 487.441 240.15 485.323L243.128 471.655C275.986 471.041 335.597 448.542 376.113 418.405C404.172 397.535 426.55 374.992 441.012 351.449C493.899 265.36 410.974 223.614 404.352 220.281Z" fill="url(#paint1_linear_7_70)"/>
<path d="M184.845 441.254C290.372 466.192 349.251 371.699 331.564 304.734C264.279 373.851 208.986 445.002 59.877 434.881C108.017 451.189 135.355 452.736 184.845 441.254Z" fill="url(#paint2_linear_7_70)"/>
<path d="M101.745 337.081C94.0168 196.697 286.747 165.146 328.417 293.859C279.258 342.3 181.977 372.108 117.002 359.549C22.789 341.338 56.2515 283.461 112.143 263.941C88.599 281.469 69.3976 309.594 80.8308 323.975C87.8617 332.819 92.5327 332.981 101.745 337.081Z" fill="url(#paint3_linear_7_70)"/>
<path d="M610.098 58.0916C613.073 51.073 612.517 48.858 603.446 51.1968C593.868 55.8681 589.466 59.6138 582.332 67.1311L557.732 90.8664L543.284 89.5205L550.094 82.9501L544.591 77.247L536.504 85.0493L536.73 86.4754L534.602 88.5286L480.441 81.2858L475.637 83.2911L471.211 87.5619L517.152 105.365L531.259 116.409C519.031 127.821 513 134.077 505.322 144.721L481.295 141.112L476.528 145.711L495.057 157.42L493.099 159.309L489 168.688L498.355 164.756L500.313 162.867L511.187 181.633L515.954 177.033L513.124 152.807C523.906 146.302 530.435 140.181 542.346 127.9L553.042 142.563L569.602 189.537L574.028 185.266L575.711 180.026L570.492 125.727L572.62 123.673L574.12 124.035L582.206 116.233L576.703 110.529L569.894 117.1L569.23 102.783L593.83 79.0481C602.117 71.3897 605.688 66.8369 610.098 58.0916Z" fill="url(#paint4_linear_7_70)"/>
<defs>
<linearGradient id="paint0_linear_7_70" x1="128.537" y1="348.013" x2="127.232" y2="380.987" gradientUnits="userSpaceOnUse">
<stop stop-color="#00A2CB"/>
<stop offset="0.380208" stop-color="#00A2CB" stop-opacity="0.635294"/>
<stop offset="1" stop-color="#107E9A"/>
</linearGradient>
<linearGradient id="paint1_linear_7_70" x1="429.921" y1="164.073" x2="342.348" y2="566.08" gradientUnits="userSpaceOnUse">
<stop stop-color="#056780"/>
<stop offset="0.380208" stop-color="#00A2CB"/>
<stop offset="0.75" stop-color="#025D74"/>
<stop offset="1" stop-color="#00A2CB"/>
</linearGradient>
<linearGradient id="paint2_linear_7_70" x1="169.885" y1="324" x2="196.885" y2="490.5" gradientUnits="userSpaceOnUse">
<stop stop-color="#05CDFF"/>
<stop offset="0.109079" stop-color="#00A2CB" stop-opacity="0.619792"/>
<stop offset="0.559832" stop-color="#04738F"/>
<stop offset="0.928568" stop-color="#015970"/>
</linearGradient>
<linearGradient id="paint3_linear_7_70" x1="193.1" y1="212.627" x2="193.1" y2="362.424" gradientUnits="userSpaceOnUse">
<stop stop-color="#00CBFF"/>
<stop offset="0.380208" stop-color="#05B7E4"/>
<stop offset="0.75" stop-color="#036F8A"/>
<stop offset="1" stop-color="#03566B"/>
</linearGradient>
<linearGradient id="paint4_linear_7_70" x1="611.158" y1="50.9876" x2="489.082" y2="168.773" gradientUnits="userSpaceOnUse">
<stop stop-color="#00CBFF" stop-opacity="0.635294"/>
<stop offset="0.395833" stop-color="#03B6E3"/>
<stop offset="0.625" stop-color="#0493B8"/>
<stop offset="1" stop-color="#024F63"/>
</linearGradient>
</defs>
</svg>
